<svg width="640" height="480" xmlns="http://www.w3.org/2000/svg">
 <!-- Created with SVG-edit - http://svg-edit.googlecode.com/ -->
 <g>
  <title>Layer 1</title>
  <path id="svg_1" d="m351.660034,198.746964c6.014587,-15.14827 -2.260193,-26.416336 -11.967285,-39.38913c4.02655,-9.657974 3.786743,-20.643494 -0.655853,-30.108383c-4.445038,-9.46312 -12.641815,-16.494354 -22.499603,-19.257133c-2.206726,-12.541489 -11.299927,-22.630806 -23.31955,-25.937225c-12.018585,-3.304985 -24.815369,0.770325 -32.862885,10.492035l-4.886017,8.048317c1.24826,-2.910477 2.879822,-5.622963 4.886017,-8.048317c-5.672211,-7.638763 -14.568176,-11.950714 -23.843292,-11.663605c-0.617905,0.016701 -1.215317,0.068848 -1.836105,0.129021c-9.933868,0.966957 -18.700607,7.121941 -23.15416,16.293198l-2.363007,6.940361c0.509659,-2.40522 1.292877,-4.738304 2.363007,-6.940361c-7.944504,-8.036743 -19.092361,-11.742737 -30.108795,-10.00383c-11.015488,1.740402 -20.583557,8.717941 -25.810593,18.834099c-14.760925,-8.877388 -33.159195,-8.338707 -47.392334,1.399704c-14.233971,9.738716 -21.819656,26.981514 -19.514236,44.378777l1.508545,7.071442c-0.682381,-2.314545 -1.191345,-4.672775 -1.508545,-7.071442l-0.229576,0.652985c-12.37365,1.315903 -22.520103,10.688416 -25.15567,23.231567c-2.635456,12.544907 2.843475,25.413742 13.577843,31.899307l16.759407,3.978012c-5.852798,0.468491 -11.694626,-0.914642 -16.759407,-3.978012c-8.278587,9.053741 -10.184128,22.461548 -4.723267,33.530853c5.461731,11.06958 17.125397,17.444046 29.15786,15.999191l7.313408,-1.889984c-2.353584,0.960175 -4.797478,1.586487 -7.313408,1.889984c6.830391,12.276398 18.156265,21.230652 31.45153,24.795685c13.295883,3.56189 27.417969,1.45694 39.192596,-5.832214c9.606689,14.790558 26.654755,22.558258 43.752808,19.939972c17.094543,-2.616577 31.198395,-15.164764 36.207214,-32.191132l1.738068,-9.515259c-0.260391,3.230957 -0.82457,6.411621 -1.738068,9.515259c11.759171,7.526245 26.550644,7.952148 38.700211,1.105957c12.149994,-6.843445 19.731812,-19.89653 19.842834,-34.113205l13.644257,-15.242661l21.839905,-14.374451l5.706146,-4.569382z" stroke-width="5" stroke="#000000" fill="#ffffff"/>
  <ellipse ry="59.500001" rx="170.999989" id="svg_3" cy="181.499995" cx="276.999997" stroke-linecap="null" stroke-linejoin="null" stroke-dasharray="null" stroke-width="5" stroke="#000000" fill="#ffffff"/>
  <text xml:space="preserve" text-anchor="middle" font-family="Bree Serif" font-size="72" id="svg_2" y="205" x="283" stroke-linecap="null" stroke-linejoin="null" stroke-dasharray="null" stroke-width="0" stroke="#000000" fill="#000000">MyJunos</text>
 </g>
</svg>